<?xml version="1.0" encoding="utf-8"?>
<!-- Generator: Adobe Illustrator 24.0.0, SVG Export Plug-In . SVG Version: 6.00 Build 0)  -->
<svg version="1.1" id="Слой_1" xmlns="http://www.w3.org/2000/svg" xmlns:xlink="http://www.w3.org/1999/xlink" x="0px" y="0px"
	 viewBox="0 0 170.08 170.08" style="enable-background:new 0 0 170.08 170.08;" xml:space="preserve">
<style type="text/css">
	.st0{fill:#720000;}
</style>
<g>
	<path class="st0" d="M152.7,59.94c1.35,0.01,2.75,0.02,4.12-0.03c1-0.04,1.78-0.45,2.13-1.11c0.34-0.63,0.26-1.4-0.21-2.19
		c-4.8-7.91-10.06-16.47-16.07-26.17c-0.43-0.69-0.94-1.1-1.52-1.2c-0.63-0.12-1.36,0.12-2.11,0.69c-0.17,0.13-0.34,0.27-0.5,0.41
		l-0.14,0.12l-42.78,36.2l-3.09-3.02c-4.24-4.14-8.43-8.23-12.6-12.34c-0.49-0.49-0.64-1.37-0.51-1.95
		c0.79-3.34,0.83-6.53,0.12-9.77c-0.18-0.82,0.26-1.99,0.93-2.44c0.8-0.54,1.59-1.09,2.38-1.65c2.86-1.98,5.81-4.03,8.91-5.75
		c2.85-1.58,7.2-3.52,12.15-2.14c2.1,0.59,2.7-0.57,2.89-0.95c0.56-1.08,0.26-2.02-0.9-2.89c-2.48-1.85-4.99-3.72-7.62-5.2
		c-5.81-3.27-11.89-4.72-18.03-4.3c-6.4,0.43-12.35,3.05-18.18,8.01c-0.68,0.58-1.79,1.19-2.86,1.16
		c-5.88-0.15-11.64,2.17-15.79,6.36c-4.02,4.06-6.12,9.36-5.91,14.91c0.02,0.54-0.12,1.57-0.79,2.03c-2.67,1.83-5.3,3.62-8.09,5.27
		c-0.95,0.57-2.4,0.19-3.1-0.17c-3.51-1.86-7.8-1.51-10.93,0.89c-2.07,1.58-3,3.83-3.69,6.04v2.71c0.53,2.43,1.79,4.54,3.97,6.63
		c4.35,4.19,8.73,8.48,12.97,12.63c2.24,2.2,4.49,4.39,6.74,6.59c0.66,0.64,1.34,1.23,2.02,1.76c3.68,2.84,8.99,2.53,12.63-0.72
		c3.25-2.91,3.94-7.76,1.68-11.79c-0.44-0.79-0.57-2.17-0.06-2.98c1.82-2.88,3.8-5.63,5.32-7.71c0.43-0.59,1.23-0.68,1.87-0.75
		l0.16-0.02c0.7-0.08,1.4-0.15,2.1-0.21c1.11-0.1,2.27-0.21,3.37-0.39c1.17-0.19,2.01,0.07,2.8,0.87c0.93,0.95,1.89,1.88,2.85,2.81
		c1.06,1.02,2.15,2.08,3.2,3.16c1.68,1.74,3.36,3.55,4.98,5.31c0.72,0.78,1.44,1.56,2.17,2.34l0.62,0.66l-3.59,3.04
		c-5.33,4.51-10.84,9.18-16.37,13.81c-0.58,0.49-1.6,0.51-2.19,0.24c-2.63-1.24-5.4-1.46-8.24-0.64
		c-7.25,2.07-13.49,6.55-19.08,13.69c-1.97,2.52-1.77,5.56,0.56,8.34l0.07,0.09c1.07,1.28,2.17,2.6,3.42,3.64
		c1.38,1.15,2.7,1.97,3.93,2.41c2.17,0.8,4.45,0.47,7.4-1.06l0.55-0.29l16.43,16.05l-0.26,0.55c-2,4.26-1.96,7.23,0.14,9.63
		c1.63,1.87,3.61,3.68,5.89,5.39c2.46,1.85,5.2,1.86,7.7,0.03c6.02-4.38,10.45-9.85,13.17-16.26c1.47-3.45,1.67-6.41,0.62-9.02
		c-0.82-2.06-0.45-3.45,1.26-4.66c1.8-1.28,2.53-3.01,2.29-5.45c-0.12-1.2-0.09-2.38-0.06-3.62c0.01-0.55,0.03-1.1,0.03-1.66v-0.86
		h3.07c1.57,0,3.07,0,4.57,0c2.61-0.01,3.25-0.65,3.26-3.28c0-0.99,0-1.98,0-3.07v-3.66l2.04,1.87c0.31,0.29,0.54,0.5,0.77,0.71
		l5.95,5.81c4.48,4.37,8.96,8.74,13.44,13.11c0.72,0.7,1.37,1.27,2.01,1.75c2.42,1.83,5.69,2.36,8.74,1.4
		c3.01-0.94,5.35-3.2,6.28-6.04c1.27-3.9,0.37-7.27-2.74-10.32c-3.18-3.11-6.36-6.22-9.54-9.33l-7.63-7.46
		c-0.25-0.25-0.49-0.5-0.76-0.79l-1.58-1.68l1.7-0.2c2.65-0.31,3.05-0.99,3.07-3.15c0.01-1.49,0.01-2.98,0-4.5V81.2h7.29
		c3.06,0,3.56-0.5,3.57-3.56v-6.69l0.89-0.24c0.14-0.04,0.28-0.08,0.46-0.08l2.6-0.01c1.28,0,2.56-0.01,3.84-0.02
		c2.31-0.02,3.05-0.76,3.06-3.05c0.01-1.5,0.01-3.01,0-4.57v-3.04h2.55C151.47,59.93,152.08,59.93,152.7,59.94z M47.52,83.52
		c-0.96,2.15-2.74,3.15-5.78,3.26l-0.25,0.01l-0.21-0.12c-0.16-0.09-0.36-0.19-0.59-0.29c-0.71-0.34-1.69-0.8-2.46-1.54
		c-6.68-6.42-13.41-13.02-19.91-19.4l-1.15-1.13c-2.37-2.32-2.58-5.49-0.52-7.71c1.04-1.11,2.42-1.75,3.89-1.79
		c1.54-0.04,3.06,0.57,4.26,1.73c3.46,3.33,6.89,6.69,10.31,10.04l5.75,5.62c1.84,1.79,3.68,3.59,5.5,5.41
		C48.06,79.3,48.47,81.4,47.52,83.52z M65.51,59.44c-2.66,1.15-5.35,1.58-8.01,1.26c-1.73-0.21-2.81,0.19-3.73,1.38
		c-1.58,2.04-3.16,4-4.84,6.08c-0.69,0.85-1.38,1.71-2.08,2.58l-0.59,0.74L30.91,56.52l3.43-2.66c2.19-1.69,4.35-3.36,6.51-5.02
		c0.87-0.67,1.19-1.47,1.06-2.7c-0.52-5.12,1.23-10.1,4.81-13.65c3.57-3.54,8.54-5.24,13.62-4.68c1.3,0.14,2.21-0.15,3.14-1.03
		c6.58-6.24,13.54-8.94,21.25-8.25C88.57,18.87,92.23,20,95.9,22l1.82,0.98l-1.98,0.6c-7.83,2.36-14.14,7.02-19.8,11.7
		c-1.32,1.09-1.6,2.13-1.04,3.83C77.59,47.36,73.65,55.92,65.51,59.44z M70.45,63.3l7.51-7.92l14.39,14.05l-8.36,7.08L70.45,63.3z
		 M86.24,135.59c-1.39,4.6-4.44,8.17-7.19,11.17c-0.97,1.06-2.03,2.04-3.06,2.99l-0.88,0.82c-0.69,0.65-1.46,0.98-2.23,0.98
		c-0.71,0-1.42-0.28-2.08-0.83c-1.16-0.98-2.68-2.3-4.04-3.74c-1.35-1.43-1.38-3.18-0.1-5.21c1.06-1.67,1.7-2.68,1.63-3.27
		c-0.07-0.6-0.93-1.43-2.35-2.83L49.09,119.2c-1.67-1.63-2.34-1.68-4.23-0.28c-2.9,2.14-5,1.96-7.52-0.63l-0.41-0.42
		c-0.84-0.85-1.7-1.73-2.39-2.76c-0.48-0.72-0.71-2.35-0.05-3.12c4.23-4.91,9.61-10.17,17.37-11.88c0.39-0.09,0.76-0.11,1.13-0.13
		l0,0l0.4-0.68l0.73,0.41c0.35,0.19,0.71,0.37,1.08,0.54c0.88,0.42,1.78,0.84,2.51,1.54c3.75,3.62,7.47,7.26,11.19,10.9
		c5.02,4.9,10.2,9.98,15.36,14.9C86.59,129.81,87.22,132.35,86.24,135.59z M138.57,114.6c2.24,2.2,2.4,5.27,0.39,7.47
		c-1.04,1.14-2.5,1.83-3.99,1.88c-0.06,0-0.13,0-0.19,0c-1.35,0-2.62-0.51-3.61-1.45c-4.59-4.37-9.22-8.89-13.71-13.26
		c-1.77-1.72-3.54-3.45-5.33-5.19l-1.13-1.1l1.54-0.35c2.93-0.67,3.17-0.96,3.17-3.86V93.1l1.3,0.77c0.11,0.07,0.21,0.12,0.3,0.17
		c0.22,0.12,0.44,0.23,0.65,0.43l3.11,3.03C126.92,103.19,132.76,108.88,138.57,114.6z M146.91,55.67c-2.14,0.02-2.87,0.75-2.91,2.9
		c-0.02,1.31-0.03,2.63-0.04,3.94c0,0.83-0.01,1.66-0.02,2.49c0,0.28-0.11,0.47-0.19,0.61c-0.03,0.04-0.06,0.1-0.1,0.18l-0.24,0.48
		h-2.49c-1.49,0-3,0-4.51,0c-2.61,0.01-3.29,0.67-3.3,3.25c0,1.41,0,2.83,0,4.32v3.07h-6.44c-4.27,0-4.43,0.17-4.43,4.43v6.2h-7.32
		c-3.07,0-3.54,0.47-3.54,3.55v7.04h-7.62c-2.65,0-3.22,0.59-3.23,3.28c0,2-0.01,4-0.02,6c0,0.22-0.07,0.39-0.13,0.52l-0.28,0.78
		h-7.07c-2.75,0-3.34,0.59-3.34,3.32c0,0.57-0.02,1.15-0.03,1.72c-0.04,1.3-0.08,2.53,0.07,3.73c0.3,2.42-0.65,4.24-2.97,5.74
		l-0.58,0.37L62.4,100.37l77.79-65.85l13,21.15h-3.16C148.93,55.67,147.92,55.66,146.91,55.67z"/>
	<path class="st0" d="M74.07,127.7c-6.16-6.06-11.18-10.95-15.8-15.41c-0.33-0.32-0.8-0.55-1.22-0.75c-0.1-0.05-0.2-0.1-0.29-0.14
		c-1.49,0.14-1.92,0.7-2.16,1.29c-0.24,0.6-0.43,1.52,0.71,2.64l3.95,3.87c3.94,3.85,7.88,7.71,11.84,11.55
		c1.06,1.02,2.32,1.09,3.21,0.18C75.19,130.03,75.09,128.7,74.07,127.7z"/>
</g>
</svg>
